<svg width="986" height="113" viewBox="0 0 986 113" fill="none" xmlns="http://www.w3.org/2000/svg">
<path fill-rule="evenodd" clip-rule="evenodd" d="M20.684 1.44901C12.816 4.25501 10 9.13599 10 19.968V27H5H0V33.945V40.89L4.75 41.195L9.5 41.5V64.25V87.001L17.25 87H25V63.929V40.859L31.25 41.117L37.5 41.375L37.794 34.187L38.088 27H31.544H25V22.723C25 16.677 27.314 13.701 31.623 14.204L35 14.598V7.91599C35 1.83099 34.799 1.179 32.75 0.630005C29.194 -0.322995 24.818 -0.0259949 20.684 1.44901ZM43.923 2.923C41.759 5.087 41 6.795 41 9.5C41 14.316 45.438 19 50 19C54.562 19 59 14.316 59 9.5C59 4.684 54.562 0 50 0C47.848 0 45.918 0.928004 43.923 2.923ZM697.077 2.58899C694.515 4.74399 694 5.901 694 9.5C694 13.099 694.515 14.256 697.077 16.411C701.295 19.961 705.346 19.807 709.202 15.952C711.904 13.25 712.186 12.427 711.687 8.703C710.608 0.659003 703.103 -2.48201 697.077 2.58899ZM169.999 17.797L170 34.094L166.25 31.107C158.892 25.247 146.826 24.521 137.268 29.364C131.544 32.265 127.591 36.525 124.616 43C121.668 49.418 121.668 64.582 124.616 71C129.511 81.653 137.209 87.057 148.525 87.783C158.585 88.429 162.438 87.503 167.06 83.327L171 79.767V83.384V87H178.5H186L185.999 44.25L185.997 1.5H177.998H169.999V17.797ZM230 44.25V87H237.38H244.759L245.168 68.25C245.519 52.174 245.845 49.049 247.454 46.335C250.934 40.467 260.026 38.935 264.545 43.455C266.992 45.901 267 45.974 267 66.455V87H275H283V64.316C283 43.167 282.855 41.332 280.856 37.202C275.461 26.058 258.977 22.923 248.75 31.097L245 34.094V17.797V1.5H237.5H230V44.25ZM198.177 18.502L198.5 27.005L194.25 27.002L190 27V34.276V41.553L194 41.171L198 40.79L198.006 56.145C198.012 72.607 198.941 78.117 202.346 81.882C205.577 85.455 211.857 87.953 217.668 87.978C225.813 88.013 226 87.823 226 79.516V72.246L221.637 72.737C214.78 73.51 214 71.668 214 54.707V40.859L219.993 41.103C223.289 41.238 225.989 41.044 225.993 40.674C225.997 40.303 226 37.075 226 33.5V27H220H214V18.5V10H205.927H197.853L198.177 18.502ZM614 18.5V27H609.5H605V34V41H609.5H614V58.852C614 75.714 614.125 76.893 616.258 80.102C620.353 86.265 630.581 89.558 638.791 87.359C640.942 86.783 641.065 86.314 640.791 79.696L640.5 72.646L636.035 72.573C629.618 72.468 628.938 70.658 629.25 54.5L629.5 41.5L635.5 41.4L641.5 41.299L641.794 34.15L642.088 27H635.544H629V18.5V10H621.5H614V18.5ZM958 18.5V27H953.456H948.912L949.206 34.233L949.5 41.467L953.687 41.161L957.875 40.856L958.187 59.178C958.486 76.666 958.609 77.653 960.901 80.867C963.982 85.187 970.109 87.95 976.668 87.978C984.821 88.013 985 87.83 985 79.456V72.126L981.477 72.697C978.903 73.115 977.423 72.787 975.977 71.48C974.181 69.854 974 68.365 974 55.225V40.76L980 41.194L986 41.628V34.314V27H980H974V18.5V10H966H958V18.5ZM88.5 27.505C86.3 28.284 83.49 30.177 82.255 31.711L80.01 34.5L80.005 30.75L80 27H72.5H65V57V87H72.5H80V71.049C80 46.174 81.989 41 91.553 41C101.385 41 102 42.557 102 67.45V87H110H118L117.994 65.75C117.991 53.856 117.522 42.818 116.928 40.679C113.87 29.669 100.232 23.348 88.5 27.505ZM308.939 27.317C300.766 29.607 294.574 35.306 290.441 44.342C288.024 49.628 287.808 51.059 288.172 59.386C288.522 67.381 288.977 69.304 291.639 74.044C295.198 80.378 301.304 85.464 307.292 87.083C309.606 87.708 314.928 88.024 319.117 87.783C327.931 87.277 333.929 84.405 338.395 78.549C340.76 75.448 344 69.08 344 67.532C344 67.239 340.476 67 336.169 67C328.936 67 328.24 67.182 327.059 69.39C325.389 72.511 321.958 74 316.438 74C312.772 74 311.352 73.417 308.52 70.75C306.623 68.962 304.781 66.263 304.427 64.75L303.783 62H323.892H344V56.038C344 48.907 341.252 40.969 337 35.814C331.023 28.568 318.262 24.704 308.939 27.317ZM371.415 27.421C369.719 28.16 367.356 30.003 366.165 31.517L364 34.27V30.635V27H356.5H349V57V87H357.037H365.074L364.92 67.002C364.79 50.029 365.013 46.629 366.396 44.518C369.618 39.602 376.811 40.002 380.027 45.277C381.801 48.186 381.993 50.377 381.996 67.75L382 87H389.943H397.886L398.193 66.578C398.494 46.54 398.546 46.108 400.924 43.578C402.387 42.023 404.437 41 406.093 41C414.175 41 415 43.451 415 67.45V87H423H431V67.549C431 46.654 430.108 39.94 426.651 34.81C419.992 24.929 406.021 23.399 397.325 31.6L393.84 34.887L390.838 31.468C386.333 26.338 377.927 24.586 371.415 27.421ZM453.5 28.031C446.325 30.795 441.586 35.14 438.071 42.174C435.396 47.527 435 49.371 435 56.482C435 66.684 436.911 72.481 442.287 78.589C448.121 85.216 454.515 87.978 464.054 87.99C473.227 88.002 480.101 85.036 485.49 78.741C492.598 70.436 495.056 56.403 491.324 45.428C488.892 38.275 480.069 29.692 472.987 27.589C465.987 25.51 459.67 25.653 453.5 28.031ZM576.333 27.097C574.591 27.602 572.004 29.396 570.583 31.084L568 34.153V30.577V27H560.5H553V57V87H561H569L569.015 67.25C569.031 45.03 569.469 43.186 575.176 41.309C580.356 39.605 584.136 40.883 586.248 45.051C587.733 47.979 587.997 51.407 587.998 67.75L588 87H596.096H604.193L603.792 64.75C603.457 46.186 603.093 41.798 601.592 38.263C597.52 28.671 586.983 24.014 576.333 27.097ZM658.873 27.564C652.537 29.515 646.446 35.76 644.505 42.294C643.677 45.082 643 47.731 643 48.182C643 48.632 646.326 49 650.392 49C657.462 49 657.811 48.89 658.417 46.475C659.437 42.411 662.551 40 666.777 40C671.77 40 675 42.331 675 45.934C675 49.961 673.513 50.756 663.7 51.975C653.662 53.223 650.432 54.265 647.155 57.317C643.406 60.808 642 64.485 642 70.802C642 81.23 648.724 88 659.083 88C665.952 88 669.527 86.801 673.25 83.249L676 80.626V83.813V87H683.5H691L690.994 65.75C690.991 53.856 690.522 42.818 689.928 40.679C686.741 29.203 672.746 23.292 658.873 27.564ZM740 27.593C738.075 28.426 735.525 30.321 734.333 31.804L732.166 34.5L732.333 31L732.5 27.5L724.75 27.208L717 26.916V56.958V87H724.943H732.886L733.193 66.578C733.494 46.54 733.546 46.108 735.924 43.578C737.858 41.521 739.293 41 743.019 41C751.204 41 751.449 41.7 751.806 66.103L752.112 87H760.056H768L767.978 64.25C767.959 44.195 767.735 41.012 766.087 37.384C761.912 28.191 749.438 23.509 740 27.593ZM790 27.48C783.643 29.534 778.583 34.113 775.314 40.77C772.86 45.767 772.501 47.651 772.505 55.5C772.511 65.705 774.286 70.84 780.098 77.459C788.62 87.165 804.246 88.754 812.736 80.778L815 78.651L814.994 82.576C814.979 93.342 810.33 99 801.5 99C797.231 99 795.544 98.487 793.13 96.456C791.467 95.057 789.828 93.032 789.486 91.956C788.939 90.231 787.928 90 780.933 90C772.296 90 772.313 89.986 774.002 96.065C775.434 101.222 781.607 107.908 787.444 110.626C791.399 112.468 794.217 112.983 800.384 112.99C811.24 113.004 815.513 111.503 821.656 105.521C829.658 97.728 830 95.794 830 58.318V27H822.5H815V31.146V35.292L812.637 32.743C807.322 27.007 798.102 24.864 790 27.48ZM854.821 27.331C842.338 30.863 834.457 42.814 834.594 58C834.706 70.354 840.662 80.161 851.261 85.443C858.644 89.122 870.38 89.11 877.793 85.416C899.646 74.526 900.23 40.258 878.748 29.372C872.619 26.267 861.833 25.346 854.821 27.331ZM916.994 26.874C907.313 30.051 900 38.482 900 46.468C900 48.952 900.141 49 907.5 49C914.153 49 915 48.789 915 47.135C915 44.331 918.605 40.309 921.638 39.729C927.206 38.664 932 42.008 932 46.956C932 49.704 929.444 50.663 918.504 52.022C903.525 53.883 898.952 57.521 898.18 68.187C897.387 79.147 902.652 86.412 912.785 88.339C917.882 89.309 925.714 87.19 929.579 83.797L933 80.793V83.896V87H940.581H948.161L947.83 63.75C947.555 44.427 947.22 39.993 945.845 37.5C942.074 30.663 935.245 26.834 926.008 26.375C922.429 26.198 918.372 26.422 916.994 26.874ZM42 57V87H50H58V57V27H50H42V57ZM497.173 50.25C497.487 72.058 497.646 73.76 499.744 77.692C503.161 84.094 508.028 87.302 515.1 87.814C521.868 88.303 526.152 86.894 529.034 83.23L531 80.73V83.865V87H539H547V57V27H539.056H531.112L530.806 48.09C530.504 68.876 530.466 69.208 528.139 71.09C526.841 72.141 524.29 73 522.471 73C513.749 73 513 70.907 513 46.55V27H504.919H496.839L497.173 50.25ZM695 57V87H703H711V57V27H703H695V57ZM321.466 41.421C324.766 42.8 328 47.269 328 50.45C328 51.764 326.171 52 316 52C305.68 52 304 51.777 304 50.404C304 47.806 308.058 42.883 311.396 41.429C315.405 39.684 317.305 39.683 321.466 41.421ZM470.128 41.566C474.267 43.706 476.951 49.951 476.976 57.5C477.011 67.663 471.839 74.455 464.066 74.455C458.807 74.455 455.688 72.556 452.884 67.649C449.93 62.48 449.676 52.346 452.37 47.206C455.746 40.765 463.697 38.241 470.128 41.566ZM871.701 41.96C880.687 47.438 881.273 64.385 872.726 71.577C869.936 73.925 868.949 74.164 863.649 73.781C858.519 73.41 857.318 72.92 854.9 70.215C847.487 61.917 849.537 45.289 858.452 41.406C862.839 39.495 868.015 39.711 871.701 41.96ZM161.364 42.379C168.337 45.292 172.231 53.944 170.122 61.837C167.319 72.324 157.387 76.786 147.5 72C139.456 68.106 136.707 57.971 141.25 48.962C144.876 41.772 153.308 39.013 161.364 42.379ZM808.478 42.172C816.609 45.877 818.108 60.69 811.038 67.464C806.975 71.357 799.065 72.094 794.19 69.034C786.246 64.048 785.858 49.19 793.514 43.168C796.644 40.705 804.161 40.205 808.478 42.172ZM931.556 65.473C930.636 71.609 927.591 74.977 922.324 75.683C918.732 76.165 917.781 75.872 915.48 73.571C910.92 69.011 913.583 63.589 920.924 62.49C922.891 62.195 926.075 61.604 928 61.176C929.925 60.748 931.667 60.513 931.87 60.653C932.074 60.793 931.933 62.962 931.556 65.473ZM674.728 65.718C673.833 73.665 667.264 77.9 660.566 74.848C656.142 72.832 655.914 66.187 660.191 63.898C662.015 62.922 668.473 61.614 673.88 61.125C674.943 61.029 675.138 62.083 674.728 65.718Z" fill="black"/>
</svg>
